<svg xmlns="http://www.w3.org/2000/svg" viewBox="0 0 430 430">
  <defs>
    <style>
      .cls-1 {
        isolation: isolate;
      }

      .cls-2 {
        fill: #b4b4b4;
      }

      .cls-3 {
        fill: #110a5c;
      }

      .cls-4 {
        mix-blend-mode: multiply;
        opacity: 0.5;
      }
    </style>
  </defs>
  <g class="cls-1">
    <g id="Warstwa_1" data-name="Warstwa 1">
      <g>
        <circle class="cls-2" cx="215.14" cy="214.91" r="159.98"/>
        <path class="cls-3" d="M295.06,134.94A80.05,80.05,0,0,1,215,215a80.06,80.06,0,0,0,0,160.12,160.12,160.12,0,0,1,0-320.24A80.05,80.05,0,0,1,295.06,134.94Z"/>
        <g class="cls-4">
          <path class="cls-3" d="M80.94,217.6A165.42,165.42,0,0,1,216.51,54.92c-.5,0-1,0-1.51,0a160.13,160.13,0,0,0-24.78,318.33A165.43,165.43,0,0,1,80.94,217.6Z"/>
        </g>
        <path class="cls-3" d="M188.67,295.06A26.33,26.33,0,1,0,215,268.73,26.33,26.33,0,0,0,188.67,295.06Z"/>
        <path class="cls-2" d="M188.67,134.94A26.33,26.33,0,1,0,215,108.61,26.33,26.33,0,0,0,188.67,134.94Z"/>
      </g>
    </g>
  </g>
</svg>
