<?xml version="1.0" encoding="UTF-8" standalone="no"?>
<!-- Created with Inkscape (http://www.inkscape.org/) -->

<svg
   xmlns:dc="http://purl.org/dc/elements/1.1/"
   xmlns:cc="http://creativecommons.org/ns#"
   xmlns:rdf="http://www.w3.org/1999/02/22-rdf-syntax-ns#"
   xmlns:svg="http://www.w3.org/2000/svg"
   xmlns="http://www.w3.org/2000/svg"
   xmlns:sodipodi="http://sodipodi.sourceforge.net/DTD/sodipodi-0.dtd"
   xmlns:inkscape="http://www.inkscape.org/namespaces/inkscape"
   width="86.433693mm"
   height="65.986481mm"
   viewBox="0 0 306.26112 233.81036"
   id="svg2"
   version="1.1"
   inkscape:version="0.91 r13725"
   sodipodi:docname="b.svg">
  <defs
     id="defs4" />
  <sodipodi:namedview
     id="base"
     pagecolor="#ffffff"
     bordercolor="#666666"
     borderopacity="1.0"
     inkscape:pageopacity="0.0"
     inkscape:pageshadow="2"
     inkscape:zoom="0.35"
     inkscape:cx="121.0714"
     inkscape:cy="151.29692"
     inkscape:document-units="px"
     inkscape:current-layer="layer1"
     showgrid="false"
     fit-margin-top="0"
     fit-margin-left="0"
     fit-margin-right="0"
     fit-margin-bottom="0"
     inkscape:window-width="515"
     inkscape:window-height="386"
     inkscape:window-x="25"
     inkscape:window-y="25"
     inkscape:window-maximized="0" />
  <metadata
     id="metadata7">
    <rdf:RDF>
      <cc:Work
         rdf:about="">
        <dc:format>image/svg+xml</dc:format>
        <dc:type
           rdf:resource="http://purl.org/dc/dcmitype/StillImage" />
        <dc:title></dc:title>
      </cc:Work>
    </rdf:RDF>
  </metadata>
  <g
     inkscape:label="Layer 1"
     inkscape:groupmode="layer"
     id="layer1"
     transform="translate(-253.9286,-449.84877)">
    <path
       style="fill:#000000"
       d="m 294.29138,681.28398 c -3.94849,-2.36684 -7.36282,-7.94146 -7.36282,-12.02138 0,-0.90417 -0.95412,-1.47976 -2.45295,-1.47976 -1.34912,0 -3.59054,-0.51832 -4.98094,-1.15183 -2.03948,-0.92925 -2.4177,-1.65392 -1.95724,-3.75 1.39959,-6.37116 2.71351,-9.17605 5.63765,-12.03493 2.24013,-2.19014 2.67338,-3.06324 1.52004,-3.06324 -2.99399,0 -7.52325,-4.79017 -7.94499,-8.40267 l -0.39806,-3.40969 6.03824,-0.62204 c 3.32104,-0.34212 7.38825,-0.22254 9.03825,0.26573 l 3,0.88776 -3.22671,-6.60954 c -1.7747,-3.63525 -4.15334,-10.20955 -5.28588,-14.60955 -1.30665,-5.07644 -3.41647,-10.00995 -5.77329,-13.5 -3.12247,-4.62386 -4.47078,-5.72721 -8.46412,-6.9263 -5.31812,-1.5969 -5.7966,-2.74184 -2.45698,-5.87925 3.31638,-3.11558 7.83266,-4.47736 10.93597,-3.29749 3.14693,1.19646 3.77101,0.6445 3.77101,-3.33527 0,-1.70774 0.92842,-6.24524 2.06315,-10.08333 1.13473,-3.8381 2.2999,-7.92656 2.58927,-9.08548 0.28936,-1.15891 -0.4806,-4.44728 -1.71102,-7.30747 -1.65861,-3.85554 -3.03934,-5.52803 -5.33927,-6.46749 l -3.10213,-1.26715 3.17308,-3.17539 c 3.7964,-3.79916 8.41471,-4.20415 13.97264,-1.22527 l 3.63848,1.9501 4.35421,-4.84293 c 9.42191,-10.47943 28.9341,-16.67623 44.35024,-14.08502 13.91611,2.33909 23.26779,9.32823 31.56522,23.59083 4.42118,7.59963 12.90986,17.43691 15.04647,17.43691 2.03909,0 1.71185,2.4075 -0.61325,4.51168 -2.57827,2.33331 -9.91869,2.41838 -13.37307,0.15499 -3.33979,-2.18832 -3.28938,-2.21066 -4.04005,1.79075 -0.35674,1.90159 -2.40467,5.679 -4.55096,8.39425 -4.89806,6.19651 -10.5134,8.60411 -18.51926,7.9402 -6.59291,-0.54674 -10.5308,-3.67737 -13.10538,-10.41882 -2.12675,-5.56882 -1.25039,-10.1219 2.73229,-14.19549 2.57168,-2.63037 3.87439,-3.17756 7.56492,-3.17756 3.59422,0 5.02478,0.56651 7.38134,2.92308 1.69969,1.69968 2.92308,3.98846 2.92308,5.46861 0,1.71275 0.437,2.37785 1.33575,2.03296 1.77087,-0.67954 4.66425,-6.85716 4.66425,-9.95858 0,-1.35634 0.45,-2.46607 1,-2.46607 3.45391,0 -2.40594,12.54134 -7.01154,15.00618 -1.2603,0.67449 -1.53391,0.10391 -1.53391,-3.19876 0,-8.21201 -9.57585,-11.83997 -15.53147,-5.88434 -2.49053,2.49052 -2.92308,3.70219 -2.92308,8.18812 0,11.34529 9.6012,17.6019 21.10078,13.75028 6.81968,-2.28416 13.89922,-11.48159 13.89922,-18.05726 0,-2.09232 0.19038,-3.80422 0.42308,-3.80422 0.23269,0 1.77307,1.35 3.42307,3 2.42876,2.42875 3.84201,3 7.42194,3 3.08203,0 4.94555,-0.57858 6.14995,-1.90943 1.64463,-1.8173 1.63015,-1.9405 -0.30012,-2.55314 -2.94278,-0.93401 -10.00933,-9.17727 -14.56405,-16.98925 -5.79152,-9.93326 -11.3913,-15.6591 -19.17779,-19.6095 -6.69431,-3.39629 -6.93874,-3.43868 -19.82697,-3.43868 l -13.04911,0 -7.83279,3.8274 c -9.01452,4.40484 -14.69973,9.16558 -18.31757,15.33896 -2.51779,4.29628 -4.1231,5.79164 -2.95798,2.75537 0.79093,-2.06112 -4.52827,-7.42173 -7.3644,-7.42173 -2.5986,0 -8.02726,2.69868 -8.02726,3.9905 0,0.51652 0.85616,1.39734 1.90259,1.95737 2.46725,1.32043 6.10105,8.85608 6.08451,12.61785 -0.007,1.61386 -0.92975,5.85928 -2.05034,9.43428 -1.12059,3.575 -2.30987,10.03134 -2.64283,14.34742 -0.45661,5.91884 -0.84343,7.3934 -1.57398,6 -2.72856,-5.20423 -8.11693,-5.77689 -12.95417,-1.37673 -3.10786,2.82703 -3.15458,2.9721 -0.96612,3 8.02575,0.1023 13.79668,7.98789 18.68318,25.52931 1.2257,4.4 3.86849,11.01823 5.87286,14.70718 2.00436,3.68895 3.6443,6.93627 3.6443,7.21627 0,0.28001 -1.5377,-0.39817 -3.41711,-1.50704 -2.66232,-1.57081 -4.81596,-1.94991 -9.75,-1.71628 -5.61166,0.26572 -6.36787,0.54535 -6.64006,2.45537 -0.43073,3.02263 5.12556,6.93502 11.05717,7.78577 5.47726,0.78558 6.39665,2.55873 1.32673,2.55873 -4.4747,0 -9.18616,3.96436 -10.69446,8.99863 -1.80414,6.02168 -0.77828,7.38607 5.03572,6.69749 l 4.87578,-0.57747 -0.51465,3.83702 c -1.37722,10.26794 11.14318,17.10631 18.79777,10.26694 5.71992,-5.11075 3.57094,-14.22261 -3.35432,-14.22261 -2.64879,0 -2.82008,-0.1781 -1.59502,-1.65848 2.1007,-2.5385 8.93286,-5.29506 13.18458,-5.31956 2.09667,-0.0121 10.06079,2.02025 17.69804,4.51628 25.15402,8.22092 37.5519,9.334 54.63035,4.9047 5.42272,-1.40638 14.13448,-4.385 19.35948,-6.61915 13.40692,-5.73267 12.41096,-5.4602 11.11633,-3.04116 -2.6256,4.90598 -0.53156,13.41227 4.10046,16.65667 3.46841,2.42936 9.5423,1.98183 13.43882,-0.99019 2.74741,-2.09555 3.34439,-3.22216 3.34439,-6.31144 0,-4.74269 -2.94555,-8.13767 -7.06039,-8.13767 -2.2008,0 -3.27729,0.64702 -4.10728,2.46864 -1.3328,2.92518 -2.83233,2.39721 -2.83233,-0.99724 0,-3.47838 3.25994,-8.78102 10.50647,-17.08985 14.60184,-16.74239 24.36243,-35.90183 27.08445,-53.16505 0.37148,-2.35593 0.87994,-4.07897 1.12993,-3.82898 0.24999,0.24998 2.35038,4.65256 4.66754,9.7835 2.31716,5.13094 6.5527,13.28029 9.41231,18.10966 2.85962,4.82937 5.1993,9.06894 5.1993,9.42126 0,0.35232 -0.71872,1.43476 -1.59717,2.40543 -2.41942,2.67343 -2.22167,8.51824 0.3761,11.116 2.65282,2.65282 8.31521,2.9064 10.98325,0.49185 1.7675,-1.59957 2.06082,-1.47825 5.79974,2.39883 8.97215,9.30369 22.98549,19.66377 38.15106,28.20512 8.74985,4.92797 12.68031,7.68083 10.9665,7.68083 -0.24121,0 -6.00527,-3.21798 -12.80902,-7.15107 -13.42247,-7.75921 -23.68067,-15.20744 -33.9068,-24.61892 -5.94663,-5.4729 -6.7082,-5.88998 -8.44113,-4.62282 -2.24429,1.64106 -6.86292,1.81619 -9.57792,0.36317 -2.14102,-1.14584 -4.94461,-5.97644 -4.94461,-8.51957 0,-0.90669 0.73179,-3.19066 1.6262,-5.07549 1.61178,-3.39658 1.59371,-3.47958 -2.03955,-9.36592 -2.01615,-3.26643 -5.86883,-10.53665 -8.5615,-16.15604 -4.5189,-9.4306 -4.94447,-9.99139 -5.52862,-7.28521 -3.59278,16.64412 -13.57117,35.30535 -27.45184,51.33943 -4.00313,4.62416 -7.90082,9.8972 -8.66155,11.71788 -1.76149,4.21585 -1.76161,5.27441 -3.1e-4,2.86569 2.08249,-2.84798 7.94015,-2.53608 10.49564,0.55887 3.08626,3.73775 3.57745,7.4873 1.45443,11.10258 -7.01541,11.9465 -24.05726,5.9663 -23.50035,-8.24657 0.17219,-4.39449 0.10449,-4.4413 -3.63221,-2.51125 -6.29767,3.25281 -27.50165,9.69914 -34.9935,10.63854 -11.15236,1.39838 -25.38895,-0.79834 -42.29612,-6.52636 -17.40851,-5.89786 -20.42664,-6.28783 -26.54803,-3.43017 -4.0224,1.87779 -4.47733,2.33807 -2.63261,2.66359 2.93264,0.5175 6.27088,4.85639 6.26618,8.1445 -0.006,3.92408 -3.60181,9.05238 -7.48604,10.67532 -4.71669,1.97076 -6.35212,1.81538 -11.1474,-1.05904 z m 252.19068,-17.22831 c -2.87428,-0.73118 -21.38308,-13.20724 -25.7662,-17.36799 -4.40158,-4.17828 -4.77795,-6.49635 -1.31125,-8.07588 1.95862,-0.89241 3.89162,-0.73558 9.25,0.75049 3.87128,1.07365 9.71936,1.84094 13.64765,1.79063 4.95997,-0.0635 6.38797,0.18379 5.12905,0.88832 -2.71849,1.52134 -10.5185,1.2245 -15.7877,-0.60083 -5.57895,-1.93263 -12.27965,-2.17107 -13.32833,-0.47429 -0.4455,0.72084 0.98638,2.7076 3.66377,5.08358 5.23505,4.64569 20.16484,14.61069 24.13564,16.1095 1.54763,0.58416 2.81387,1.41346 2.81387,1.84288 0,0.42942 -0.1125,0.72856 -0.25,0.66476 -0.1375,-0.0638 -1.12592,-0.33883 -2.1965,-0.61117 z m -192.0535,-5.13725 c -3.85,-0.96765 -7.97228,-2.28833 -9.16062,-2.93483 -3.20635,-1.74436 -6.07282,-7.04955 -6.86241,-12.70075 -0.95506,-6.8355 -3.77238,-12.99223 -6.87571,-15.02561 -3.67431,-2.4075 -5.22063,-1.35767 -7.18661,4.87912 -2.29857,7.29192 -0.79218,13.17248 4.70988,18.38622 4.62182,4.37963 4.28796,5.575 -0.53059,1.89972 -1.90327,-1.4517 -3.70678,-2.63945 -4.0078,-2.63945 -0.30102,0 -2.92249,-1.51939 -5.82549,-3.37641 -18.74205,-11.98915 -28.34472,-32.75045 -26.36347,-56.99873 1.41138,-17.2737 6.30871,-29.74067 15.71559,-40.00662 15.13427,-16.51639 38.84107,-19.33129 52.72486,-6.26044 4.09232,3.8527 7.17337,9.62281 7.12972,13.35236 -0.026,2.22676 -0.3855,1.76921 -1.78092,-2.26694 -2.26034,-6.53791 -8.01421,-12.69265 -14.45703,-15.46428 -7.26791,-3.12657 -20.70304,-2.54707 -28.94746,1.24861 -17.64445,8.12339 -28.86186,29.2254 -28.85016,54.27245 0.007,14.85576 2.51533,25.01862 8.45142,34.24136 3.00345,4.66637 12.74825,14.02108 18.22057,17.49119 l 4.10377,2.60229 -1.30987,-3.66742 c -1.92122,-5.37904 -1.67705,-10.64723 0.75557,-16.30199 1.96262,-4.56224 2.38311,-4.94798 4.75,-4.35747 5.58176,1.39258 8.06129,5.34979 10.63321,16.97008 2.68447,12.12882 5.34756,14.0796 22.68043,16.614 4.80245,0.70221 11.49466,0.86753 17.34931,0.42859 l 9.53113,-0.71458 -5.84166,-2.76267 c -7.30401,-3.45425 -10.92106,-7.62932 -11.82357,-13.64766 -0.679,-4.52788 0.95331,-12.88972 2.37711,-12.17723 0.37994,0.19012 2.0408,0.92953 3.6908,1.64311 8.56693,3.70498 13.68841,6.62192 14.59244,8.31113 0.55435,1.03581 1.36037,1.66545 1.79116,1.39921 0.43079,-0.26624 3.44571,0.61047 6.69982,1.94826 7.28541,2.99506 11.78547,3.09197 18.62956,0.40118 9.47837,-3.72647 21.78702,-15.09242 21.78702,-20.11838 0,-2.84985 -2.5058,-2.12545 -7.44999,2.15371 -2.56611,2.22096 -6.1297,4.24901 -8.12329,4.62302 -3.52484,0.66126 -12.07074,0.10958 -13.02089,-0.84057 -0.9554,-0.95539 4.88834,-11.83067 7.53483,-14.02241 l 2.67397,-2.2145 -3.30731,-3.1192 c -1.81903,-1.71556 -3.30732,-3.8023 -3.30732,-4.63719 0,-2.72103 6.45722,-4.85697 14.68329,-4.85697 9.30246,0 12.86755,-1.37794 17.46675,-6.75108 5.31546,-6.20992 7.34996,-14.13698 7.34996,-28.63781 0,-14.88182 -2.38153,-24.50722 -9.72502,-39.30554 -5.26774,-10.61532 -7.74679,-13.29267 -10.3261,-11.15204 -1.13009,0.9379 -1.37441,4.09355 -1.18608,15.3194 0.21635,12.89554 0.0446,14.49807 -1.95389,18.23286 -2.09627,3.91749 -8.46282,10.40532 -10.21082,10.40532 -1.40225,0 -5.8899,-7.50288 -6.9476,-11.61565 -0.56988,-2.21592 -0.66774,-5.9399 -0.22785,-8.66997 0.42411,-2.63209 0.45717,-4.97964 0.0735,-5.21678 -0.38369,-0.23713 -2.20221,0.6789 -4.04115,2.03562 -4.25582,3.13983 -9.95499,3.41345 -9.95499,0.47794 0,-1.09387 -0.94988,-5.45119 -2.11085,-9.68295 -2.51543,-9.16884 -2.18892,-12.95204 2.24861,-26.05426 2.76762,-8.17167 2.98136,-9.57215 1.87026,-12.2546 -3.36562,-8.1253 -14.10831,-12.60177 -34.28943,-14.28835 -16.4461,-1.37444 -17.59596,-0.56223 -7.95382,5.61822 9.76962,6.26217 15.23523,14.06094 15.23523,21.73885 l 0,3.15231 -6,-0.434 c -5.99851,-0.43389 -6,-0.43331 -6,2.34588 0,1.52894 -0.76588,4.38595 -1.70195,6.34891 -1.54463,3.23913 -1.98369,3.50829 -4.75,2.91189 -4.36625,-0.94133 -9.67726,-3.82107 -12.37092,-6.70776 -1.27757,-1.36913 -3.63099,-6.40761 -5.22981,-11.19661 -1.59882,-4.78901 -3.82312,-10.18969 -4.94289,-12.00153 -1.98995,-3.2198 -7.23611,-6.50716 -10.3845,-6.50716 -5.11025,0 -32.18009,11.59163 -36.9362,15.81651 -1.75502,1.55901 -1.75502,1.6593 0,2.97435 1.36831,1.02527 3.81521,1.19974 9.92098,0.70737 11.04906,-0.891 15.72612,0.48133 21.26159,6.23848 l 4.3663,4.54116 -3.8663,1.49145 c -2.12646,0.82029 -6.0038,1.7012 -8.6163,1.95757 -4.44318,0.43603 -4.75,0.64973 -4.75,3.30835 0,2.5931 -0.38633,2.90015 -4.40777,3.5032 -6.12791,0.91894 -9.59905,-0.063 -15.76746,-4.46063 -6.32491,-4.50915 -11.14268,-7.07781 -13.27511,-7.07781 -1.13762,0 -1.54966,1.04874 -1.54966,3.94424 0,6.10023 -3.46961,9.5306 -9.65391,9.54471 -2.66535,0.006 -5.40859,0.37511 -6.09609,0.82007 -1.68715,1.09195 -1.65695,-1.72639 0.0335,-3.12937 0.81367,-0.67529 1.82036,-0.72572 2.75,-0.13776 2.19169,1.38617 6.25082,1.14766 8.61178,-0.50602 2.47301,-1.73216 3.74807,-6.93231 2.34335,-9.55704 -0.67481,-1.26088 -0.6512,-2.06937 0.0735,-2.51726 2.24259,-1.386 7.87188,0.76047 15.86427,6.04911 7.69504,5.09188 8.72205,5.48932 14.18461,5.48932 5.14957,0 5.88894,-0.24214 5.88894,-1.92857 0,-1.06072 -0.675,-2.60357 -1.5,-3.42857 -2.2587,-2.2587 -1.92569,-2.38358 3.43046,-1.28638 4.11957,0.84388 5.59974,0.70818 9,-0.82512 2.23824,-1.00931 4.06954,-2.13257 4.06954,-2.49614 0,-1.28098 -5.53399,-5.92083 -8.3151,-6.9716 -1.5483,-0.58499 -7.4248,-1.06362 -13.05887,-1.06362 -10.89422,0 -14.14254,-1.08205 -13.48477,-4.49191 0.45908,-2.37987 11.2604,-8.29349 24.68235,-13.51335 19.07909,-7.41995 24.48758,-5.1906 30.53374,12.58584 4.38887,12.90382 6.30019,15.34153 14.45957,18.44185 l 5.04134,1.91556 1.69026,-4.42586 c 1.12191,-2.9377 1.46583,-5.62208 1.02283,-7.98351 l -0.66742,-3.55765 3.29803,2.01078 c 1.81392,1.10593 4.76054,2.01246 6.54804,2.01451 2.72721,0.003 3.25,-0.36682 3.25,-2.29992 0,-3.12538 -4.4392,-11.82087 -7.50527,-14.70129 -1.37256,-1.28946 -5.30788,-4.18444 -8.74515,-6.43331 -9.60921,-6.28691 -8.80124,-7.06936 7.25042,-7.02142 11.3747,0.034 14.65287,0.41164 20.82306,2.3989 17.28341,5.56654 20.39852,11.54614 14.77408,28.35964 -2.82555,8.44659 -3.47677,16.41537 -1.7814,21.79826 0.58947,1.87158 1.56442,5.31538 2.16655,7.65288 1.29444,5.025 2.89811,5.37483 8.18144,1.78471 6.17479,-4.19588 6.30963,-4.06728 6.32367,6.03111 0.0114,8.22111 0.27096,9.45689 2.78543,13.26306 l 2.77283,4.19724 3.04101,-2.24832 c 6.98252,-5.1624 9.41933,-13.87403 7.69388,-27.50575 -1.13802,-8.99078 -0.11888,-13.71251 3.18612,-14.76147 3.09339,-0.9818 4.88492,0.53189 8.92673,7.54231 7.73353,13.41362 12.28909,30.13489 12.29182,45.11728 0.003,15.86575 -3.55293,25.81002 -11.52634,32.23477 -3.57424,2.88002 -4.54696,3.13488 -14,3.66811 -5.58738,0.31518 -11.20412,1.13604 -12.48164,1.82413 -2.10767,1.13522 -2.19303,1.45254 -0.92182,3.42694 0.77052,1.19673 3.16576,3.06261 5.32276,4.14639 3.16917,1.59234 3.53799,2.0428 1.92182,2.34723 -2.96447,0.55841 -7.14729,4.90047 -9.45964,9.81979 -1.1222,2.38737 -2.04036,4.53482 -2.04036,4.77212 0,0.23729 1.35978,0.7301 3.02173,1.09512 5.34137,1.17316 10.76873,-0.42869 15.58971,-4.60122 6.5167,-5.64016 10.60457,-4.88467 8.96286,1.65644 -0.95494,3.80479 -11.89152,13.96623 -18.38652,17.08337 -7.81189,3.74915 -16.27636,4.29574 -22.67715,1.46436 -2.62068,-1.15924 -5.33507,-2.10772 -6.03199,-2.10772 -0.69692,0 -2.67394,-1.31415 -4.39336,-2.92034 -3.49547,-3.26526 -15.10737,-8.21308 -16.45677,-7.01223 -0.47933,0.42656 -0.6835,3.72808 -0.45372,7.33672 0.35552,5.58326 0.85802,7.02923 3.3715,9.70166 3.89618,4.14258 8.53622,6.07062 16.45371,6.83686 l 6.5,0.62906 -6.5,1.54554 c -9.41046,2.23757 -29.63199,2.24719 -38.5,0.0183 z m 176.5,-25.89845 c 0,-0.41958 1.00615,-1.20708 2.23588,-1.75 2.50735,-1.10698 4.3918,-5.40903 3.4474,-7.87012 -0.44093,-1.14902 -1.88905,-1.61701 -5.00363,-1.61701 -3.51165,0 -5.74226,0.89269 -11.21912,4.48991 -7.62768,5.00987 -11.61891,6.16077 -15.82259,4.56253 -2.19022,-0.83272 -2.66193,-1.47804 -2.05865,-2.81634 1.5949,-3.53811 0.75146,-7.55485 -2.10171,-10.00904 -2.65474,-2.28352 -4.58363,-2.47936 -8.47758,-0.86074 -1.80924,0.75206 -6.64296,-5.93245 -13.2811,-18.36632 -7.39395,-13.84956 -11.92403,-26.86138 -13.22975,-38 -0.90078,-7.68418 -5.01148,-23.86609 -7.80804,-30.73662 -1.29025,-3.16986 -4.22333,-8.85017 -6.51795,-12.6229 l -4.17205,-6.85953 2.75444,0.85953 c 5.22377,1.63007 16.46945,0.97642 20.07352,-1.16677 7.82121,-4.65094 10.21695,-16.42014 5.12709,-25.18706 -4.29816,-7.40329 -9.99128,-13.37706 -14.65292,-15.37528 -5.9829,-2.56457 -6.7256,-2.41519 -4.30047,0.86498 2.283,3.08792 2.65527,6.41481 1.50766,13.47352 -0.57776,3.55363 -0.34152,5.87771 0.938,9.22809 2.88873,7.56402 -0.46767,12.52204 -8.47695,12.52204 -5.21426,0 -9.42147,-2.55051 -16.46148,-9.97933 -5.33246,-5.62697 -18.55056,-15.9439 -26.07643,-20.35305 -12.32807,-7.2226 -22.58183,-9.95127 -41.92357,-11.15646 -10.17769,-0.63417 -26.5485,0.43497 -32.41867,2.1172 -2.10666,0.6037 -2.31153,0.44663 -1.58816,-1.21762 1.84928,-4.2546 1.71254,-8.93545 -0.33436,-11.44558 -1.93697,-2.37532 -2.03457,-2.39228 -2.67825,-0.46516 -2.06796,6.19125 -3.16743,7.93464 -7.29563,11.56842 -2.4992,2.19989 -7.95071,5.60582 -12.11447,7.56874 -19.18332,9.04359 -27.06714,13.34707 -35.97593,19.6379 -6.90871,4.8785 -10.15439,6.60683 -11.59453,6.17411 -8.14961,-2.44873 -8.1154,-2.42378 -2.70606,-1.97358 5.01953,0.41775 5.60069,0.2073 11.2118,-4.05998 8.29714,-6.31002 17.36207,-11.44591 30.86923,-17.48944 17.64062,-7.89299 26.11165,-15.08463 26.12129,-22.17617 0.005,-3.54447 2.20309,-3.58332 4.95289,-0.0875 2.793,3.55073 3.54524,6.95704 2.19217,9.9267 -1.06347,2.33405 -0.99191,2.40795 1.62309,1.67625 5.40502,-1.51235 42.19846,-0.7537 50.16529,1.03438 14.75756,3.3122 30.85587,13.18734 48.76921,29.91638 10.09783,9.43024 14.39549,11.27947 19.99967,8.60563 3.47491,-1.65793 4.03105,-5.10904 1.8712,-11.61173 -1.19135,-3.58682 -1.32853,-5.56447 -0.56956,-8.21086 1.60903,-5.61036 1.17473,-9.37355 -1.50022,-12.99923 -4.395,-5.95708 -3.01607,-6.44463 6,-2.12142 9.74794,4.67414 17.45297,15.43743 18.20716,25.43389 0.6255,8.29088 -2.30846,14.15761 -8.75091,17.49825 -3.74642,1.94265 -5.67633,2.2607 -12.11582,1.99669 l -7.65957,-0.31402 2.47536,4.0033 c 6.50611,10.52208 10.82435,23.38096 13.9074,41.41351 1.63571,9.56713 3.67264,17.46514 6.06077,23.5 4.08226,10.31595 12.45588,26.06751 16.29802,30.65808 2.2594,2.69952 2.90006,2.95663 5.18984,2.08283 2.70822,-1.03349 6.95349,0.72352 9.51212,3.93683 1.44264,1.81178 2.2987,7.84157 1.2089,8.51511 -2.09055,1.29203 -0.45063,2.39695 3.55754,2.39695 3.43558,0 5.44794,-0.76567 9.25,-3.51945 7.78504,-5.6386 11.16927,-6.85557 16.26826,-5.85003 5.11274,1.00825 6.13161,3.45635 3.53127,8.48484 -1.51222,2.92433 -1.49851,2.98614 0.43326,1.95229 2.48769,-1.33138 10.11786,-1.36856 12.1264,-0.0591 1.03917,0.67748 0.1175,0.8036 -3,0.41051 -2.90095,-0.36579 -6.05489,-0.008 -8.87573,1.00676 -4.7914,1.72372 -7.12427,1.98939 -7.12427,0.81131 z m 14.5,-20.09067 c -7.726,-3.67237 -16.59597,-10.94946 -20.63876,-16.93242 -1.75194,-2.59272 -3.28262,-4.84673 -3.4015,-5.00891 -0.11888,-0.16218 -1.58634,1.07532 -3.26102,2.75 -3.4883,3.4883 -7.1747,3.9174 -12.94424,1.50673 -3.84589,-1.60691 -7.25448,-4.21651 -7.25448,-5.55398 0,-0.43018 1.50594,-0.53776 3.34653,-0.23907 2.88013,0.46738 3.91091,0.006 7.3961,-3.31287 5.81731,-5.53914 6.65296,-9.52962 5.0959,-24.33442 -0.95007,-9.0335 -1.54344,-11.68138 -2.44926,-10.92962 -5.77563,4.79335 -17.3322,1.50853 -18.96743,-5.39127 -0.61704,-2.6036 -0.48637,-2.75493 1.86849,-2.1639 6.28759,1.57809 17.7404,-7.65001 21.21676,-17.09538 3.06743,-8.33431 6.68404,-16.91448 7.35531,-17.45002 0.35068,-0.27976 1.69382,-1.70531 2.98476,-3.16787 l 2.34716,-2.65921 -3.84716,0.49819 c -2.82981,0.36644 -5.3817,-0.20996 -9.6501,-2.17967 l -5.80293,-2.67785 2.38883,-3.09766 c 1.31386,-1.70371 3.25018,-3.57231 4.30293,-4.15245 1.05276,-0.58015 2.10338,-1.16908 2.33472,-1.30875 0.23134,-0.13967 -0.49174,-1.26467 -1.60684,-2.5 -1.58467,-1.75554 -5.31377,-8.24097 -5.31377,-9.24141 0,-0.89027 8.77231,-2.49393 10.98446,-2.00806 l 2.83304,0.62224 -1.01676,-4.00572 c -0.83809,-3.30183 -0.69026,-4.66278 0.84125,-7.74488 2.69699,-5.42757 6.32704,-7.70695 12.4135,-7.79465 4.58524,-0.0661 5.41524,0.27245 8.13912,3.31968 2.66281,2.9789 2.97204,3.93589 2.53233,7.83696 -0.59015,5.23576 -1.42361,6.25582 -5.85139,7.1614 l -3.30975,0.67691 3.9671,2.46574 c 3.30214,2.05243 5.18308,2.45537 11.22162,2.40392 3.98998,-0.034 6.68998,0.29662 6,0.73469 -0.68999,0.43807 -3.91498,0.80339 -7.16666,0.81181 -8.67758,0.0225 -16.58786,-4.98064 -16.58786,-10.49153 0,-1.40789 0.3706,-1.34681 2.63486,0.43426 1.44917,1.13992 2.99203,2.07258 3.42857,2.07258 2.11356,0 3.93657,-3.47269 3.93657,-7.49885 0,-6.1575 -3.47605,-8.89036 -10.46284,-8.22585 -4.10953,0.39086 -5.44207,1.04605 -7.75,3.81059 -3.37906,4.04757 -3.66074,8.96905 -0.78342,13.68828 2.62458,4.3047 2.53713,4.55689 -0.95408,2.75151 -3.22729,-1.66889 -8.76619,-1.99148 -10.90667,-0.63521 -2.84643,1.80358 3.0541,11.10953 7.0441,11.10953 0.9971,0 1.81291,0.47829 1.81291,1.06286 0,0.58457 -0.7875,0.98275 -1.75,0.88484 -3.78044,-0.38455 -5.43667,0.14806 -7.79545,2.50685 -3.22947,3.22946 -3.11316,3.86096 1.07938,5.86024 4.76981,2.27456 11.20788,2.14 15.24024,-0.31853 1.80079,-1.09794 3.5428,-1.99626 3.87113,-1.99626 0.32832,0 -2.27005,3.06197 -5.77417,6.80438 -4.80583,5.13265 -6.94166,8.38799 -8.6933,13.25 -4.17661,11.59295 -5.61012,14.38658 -9.67085,18.84657 -4.13139,4.53759 -10.31102,8.03857 -14.25698,8.07709 -2.77404,0.0271 -2.86888,1.40308 -0.27544,3.99652 4.05705,4.05705 12.47819,3.8079 15.84217,-0.46869 l 1.90339,-2.41977 0.64188,7.70695 c 0.35304,4.23882 0.92658,10.97093 1.27455,14.96024 1.0105,11.58519 -2.7119,18.78937 -11.21974,21.71423 l -3.77281,1.29703 3.23521,1.67299 c 1.77937,0.92014 5.06117,1.7458 7.29291,1.8348 3.30566,0.13182 4.49973,-0.35209 6.44278,-2.61103 1.31181,-1.52506 2.3851,-3.64774 2.3851,-4.71707 0,-2.96289 1.67542,-2.31715 2.31749,0.89321 1.35939,6.79696 13.75305,18.5586 24.9644,23.69133 5.31287,2.43231 6.80176,3.47236 4.96811,3.47043 -0.4125,-4.3e-4 -3.45,-1.28417 -6.75,-2.85275 z m 1.90578,-7.44165 c -9.28716,-5.00131 -17.86597,-15.47207 -22.69887,-27.70481 -7.41788,-18.77568 -5.38108,-48.58095 4.32081,-63.22813 5.88857,-8.89012 24.70777,-23.81611 29.94953,-23.75375 0.83751,0.01 -0.78725,1.29193 -3.61057,2.84882 -17.11068,9.43548 -25.59667,18.9006 -30.40599,33.9143 -2.56531,8.00837 -3.01103,10.99153 -3.06953,20.54379 -0.0891,14.5509 1.43022,23.36581 5.53072,32.08863 5.75569,12.24384 12.52121,20.00666 21.32812,24.47208 3.94931,2.00245 5.2886,3.17684 3.5,3.06907 -0.4125,-0.0249 -2.5924,-1.03735 -4.84422,-2.25 z m 8.1335,-95.40431 c -0.34104,-1.35882 -0.35082,-3.44482 -0.0217,-4.63554 1.11908,-4.04932 3.78336,-9.66496 4.5854,-9.66496 0.43958,0 -0.0689,1.9125 -1.12991,4.25 -1.06103,2.3375 -1.93903,5.7676 -1.95111,7.62245 -0.0188,2.88539 0.19467,3.19265 1.47804,2.12755 1.22039,-1.01283 1.5,-0.96419 1.5,0.26092 0,0.8282 -0.86414,1.7318 -1.92032,2.00799 -1.4187,0.371 -2.08229,-0.14318 -2.5404,-1.96841 z"
       id="path3358"
       inkscape:connector-curvature="0" />
  </g>
</svg>
